<?xml version="1.0" encoding="utf-8"?>
<!-- Generator: Adobe Illustrator 22.1.0, SVG Export Plug-In . SVG Version: 6.00 Build 0)  -->
<svg version="1.1" id="Icon_Set" xmlns="http://www.w3.org/2000/svg" xmlns:xlink="http://www.w3.org/1999/xlink" x="0px" y="0px"
	 viewBox="0 0 512 512" style="enable-background:new 0 0 512 512;" xml:space="preserve">
<style type="text/css">
	.st0{fill:#F0C48A;}
	.st1{fill:#FD919E;}
	.st2{fill:#4C4372;}
	.st3{fill:#D3E6F8;}
	.st4{fill:#A4CFF2;}
	.st5{fill:#7BABF1;}
	.st6{fill:#FFFFFF;}
	.st7{fill:#E8677D;}
	.st8{fill:none;stroke:#4C4372;stroke-width:12;stroke-linecap:round;stroke-linejoin:round;stroke-miterlimit:10;}
</style>
<g id="Ask_A_Doctor">
	<g>
		<g>
			<circle class="st0" cx="256" cy="256" r="207"/>
		</g>
	</g>
	<g>
		<g>
			<path class="st3" d="M309.684,388.715H112.107v-65.559c0-18.493,14.992-33.485,33.485-33.485h130.607
				c18.493,0,33.485,14.992,33.485,33.485V388.715z"/>
		</g>
		<g>
			<path class="st5" d="M195.967,316.097c0,0,15.964,11.888,29.819,0c-14.837,55.821-14.837,55.821-14.837,55.821L195.967,316.097z"
				/>
		</g>
		<g>
			<path class="st5" d="M268.415,224.75v-44c0-31.737-25.728-57.465-57.465-57.465h0c-31.737,0-57.465,25.728-57.465,57.465v44
				h17.945h80.359H268.415z"/>
		</g>
		<g>
			<path class="st2" d="M268.415,230.75H153.484c-3.313,0-6-2.686-6-6v-44c0-34.995,28.47-63.465,63.465-63.465
				s63.466,28.47,63.466,63.465v44C274.415,228.064,271.729,230.75,268.415,230.75z M159.484,218.75h102.931v-38
				c0-28.378-23.087-51.465-51.465-51.465s-51.466,23.087-51.466,51.465V218.75z"/>
		</g>
		<g>
			<path class="st3" d="M261.804,240.419H159.987c-9.741,0-17.638-7.897-17.638-17.638v0c0-9.741,7.897-17.638,17.638-17.638
				h101.816c9.741,0,17.638,7.897,17.638,17.638v0C279.441,232.522,271.545,240.419,261.804,240.419z"/>
		</g>
		<g>
			<path class="st2" d="M261.804,246.419H159.987c-13.034,0-23.638-10.604-23.638-23.638s10.604-23.638,23.638-23.638h101.816
				c13.034,0,23.638,10.604,23.638,23.638S274.838,246.419,261.804,246.419z M159.987,211.144c-6.417,0-11.638,5.221-11.638,11.638
				s5.221,11.638,11.638,11.638h101.816c6.417,0,11.638-5.221,11.638-11.638s-5.221-11.638-11.638-11.638H159.987z"/>
		</g>
		<g>
			<path class="st4" d="M276.199,289.672h-20.321c18.493,0,33.485,14.992,33.485,33.485v65.559h20.321v-65.559
				C309.684,304.664,294.692,289.672,276.199,289.672z"/>
		</g>
		<g>
			<path class="st2" d="M309.685,394.715H112.106c-3.313,0-6-2.686-6-6v-65.559c0-21.772,17.713-39.485,39.485-39.485h130.607
				c21.772,0,39.485,17.713,39.485,39.485v65.559C315.685,392.029,312.998,394.715,309.685,394.715z M118.106,382.715h185.578
				v-59.559c0-15.155-12.33-27.485-27.485-27.485H145.592c-15.155,0-27.485,12.33-27.485,27.485V382.715z"/>
		</g>
		<g>
			<g>
				<path class="st2" d="M152.228,394.715c-3.313,0-6-2.686-6-6v-33.593c0-3.314,2.687-6,6-6s6,2.686,6,6v33.593
					C158.228,392.029,155.541,394.715,152.228,394.715z"/>
			</g>
			<g>
				<path class="st2" d="M269.563,394.715c-3.313,0-6-2.686-6-6v-33.593c0-3.314,2.687-6,6-6s6,2.686,6,6v33.593
					C275.563,392.029,272.877,394.715,269.563,394.715z"/>
			</g>
		</g>
		<g>
			<path class="st3" d="M210.877,321.924L210.877,321.924c-12.152,0-22.002-9.851-22.002-22.002v-39.209h44.005v39.209
				C232.879,312.073,223.029,321.924,210.877,321.924z"/>
		</g>
		<g>
			<path class="st2" d="M210.877,327.924c-15.44,0-28.002-12.562-28.002-28.002v-39.209c0-3.314,2.687-6,6-6h44.005
				c3.313,0,6,2.686,6,6v39.209C238.88,315.362,226.317,327.924,210.877,327.924z M194.875,266.713v33.209
				c0,8.824,7.179,16.002,16.002,16.002c8.824,0,16.003-7.179,16.003-16.002v-33.209H194.875z"/>
		</g>
		<g>
			<path class="st6" d="M230.949,173.716c-18.317,20.005-53.43,27.799-68.847,30.35c-0.38,2.469-0.578,4.997-0.578,7.572v22.967
				c0,27.268,22.105,49.372,49.372,49.372h0c27.268,0,49.372-22.105,49.372-49.372v-22.967c0-2.373-0.178-4.703-0.501-6.986
				C255.4,202.423,237.693,192.421,230.949,173.716z"/>
		</g>
		<g>
			<g>
				<path class="st2" d="M188.732,229.122c-3.313,0-6-2.686-6-6v-9.576c0-3.314,2.687-6,6-6s6,2.686,6,6v9.576
					C194.732,226.435,192.046,229.122,188.732,229.122z"/>
			</g>
			<g>
				<path class="st2" d="M233.059,229.122c-3.313,0-6-2.686-6-6v-9.576c0-3.314,2.687-6,6-6s6,2.686,6,6v9.576
					C239.059,226.435,236.372,229.122,233.059,229.122z"/>
			</g>
		</g>
		<g>
			<path class="st2" d="M210.896,289.977c-30.532,0-55.372-24.84-55.372-55.372v-22.967c0-2.836,0.218-5.691,0.647-8.485
				c0.395-2.564,2.393-4.583,4.951-5.007c13.934-2.306,48.2-9.697,65.402-28.483c1.418-1.549,3.541-2.244,5.604-1.831
				c2.06,0.413,3.753,1.872,4.466,3.848c6.058,16.802,22.639,25.961,25.901,27.627c1.739,0.888,2.938,2.567,3.212,4.5
				c0.372,2.62,0.561,5.254,0.561,7.83v22.967C266.268,265.137,241.428,289.977,210.896,289.977z M167.592,209.189
				c-0.046,0.816-0.068,1.634-0.068,2.449v22.967c0,23.916,19.457,43.372,43.372,43.372s43.372-19.457,43.372-43.372v-22.967
				c0-1.063-0.041-2.14-0.123-3.224c-6.292-3.65-17.796-11.645-25.126-24.597C211.053,198.827,184.849,205.95,167.592,209.189z"/>
		</g>
		<g>
			<polygon class="st6" points="169.306,289.672 153.484,321.924 175.141,321.924 164.313,339.194 210.95,371.919 188.875,289.672 
							"/>
		</g>
		<g>
			<path class="st2" d="M210.95,377.919c-1.206,0-2.412-0.363-3.446-1.089l-46.638-32.725c-2.614-1.834-3.333-5.394-1.637-8.099
				l5.067-8.082h-10.812c-2.071,0-3.996-1.068-5.092-2.826s-1.207-3.957-0.295-5.816l15.821-32.252
				c1.008-2.055,3.098-3.357,5.387-3.357h19.569c2.715,0,5.091,1.823,5.795,4.445l22.075,82.247
				c0.654,2.438-0.287,5.024-2.354,6.471C213.357,377.558,212.153,377.919,210.95,377.919z M172.422,337.554l28.45,19.963
				l-16.599-61.846h-11.229l-9.935,20.252h12.031c2.183,0,4.193,1.185,5.25,3.095c1.057,1.91,0.993,4.243-0.167,6.092
				L172.422,337.554z"/>
		</g>
		<g>
			<polygon class="st6" points="252.594,289.672 268.415,321.924 246.758,321.924 257.587,339.194 210.95,371.919 233.025,289.672 
							"/>
		</g>
		<g>
			<path class="st2" d="M210.95,377.919c-1.204,0-2.407-0.361-3.44-1.084c-2.067-1.447-3.009-4.034-2.354-6.471l22.074-82.247
				c0.704-2.622,3.08-4.445,5.795-4.445h19.569c2.289,0,4.379,1.302,5.387,3.357l15.821,32.252c0.912,1.86,0.801,4.058-0.295,5.816
				s-3.021,2.826-5.092,2.826h-10.812l5.067,8.082c1.696,2.705,0.978,6.265-1.637,8.099l-46.637,32.725
				C213.362,377.556,212.156,377.919,210.95,377.919z M237.626,295.672l-16.599,61.846l28.45-19.963l-7.803-12.443
				c-1.16-1.849-1.224-4.182-0.167-6.092c1.057-1.91,3.067-3.095,5.25-3.095h12.031l-9.935-20.252H237.626z"/>
		</g>
		<g>
			<path class="st2" d="M210.95,394.715c-3.313,0-6-2.686-6-6v-16.797c0-3.314,2.687-6,6-6s6,2.686,6,6v16.797
				C216.95,392.029,214.264,394.715,210.95,394.715z"/>
		</g>
		<g>
			<g>
				<circle class="st1" cx="350.519" cy="172.659" r="49.375"/>
			</g>
			<g>
				<path class="st2" d="M350.519,228.034c-30.534,0-55.375-24.841-55.375-55.375c0-30.534,24.841-55.375,55.375-55.375
					s55.375,24.841,55.375,55.375C405.894,203.193,381.053,228.034,350.519,228.034z M350.519,129.285
					c-23.917,0-43.375,19.458-43.375,43.375c0,23.917,19.458,43.375,43.375,43.375s43.375-19.458,43.375-43.375
					C393.894,148.742,374.436,129.285,350.519,129.285z"/>
			</g>
			<g>
				<g>
					<path class="st2" d="M353.641,177.993v5.418c0,2.334-1.75,4.084-4.084,4.084c-2.167,0-4.084-1.75-4.084-4.084v-8.668
						c0-0.083,0.084-0.083,0.084-0.167c-0.084-0.083-0.084-0.083-0.084-0.167c0-2.167,1.917-4.084,4.084-4.084
						c5.25,0,9.502-4.167,9.502-9.335c0-5.251-4.251-9.335-9.502-9.335c-3.417,0-6.418,1.834-8.002,4.584
						c-1.167,2-3.667,2.667-5.667,1.5c-1.917-1.167-2.584-3.584-1.417-5.584c3-5.168,8.667-8.668,15.086-8.668
						c9.668,0,17.586,7.835,17.586,17.503C367.143,169.242,361.392,176.16,353.641,177.993z M353.641,196.247v1.5
						c0,2.334-1.75,4.084-4.084,4.084c-2.167,0-4.084-1.75-4.084-4.084v-1.5c0-2.25,1.917-4.084,4.084-4.084
						C351.891,192.163,353.641,193.996,353.641,196.247z"/>
				</g>
			</g>
		</g>
	</g>
</g>
</svg>
