<?xml version="1.0" encoding="iso-8859-1"?>
<!-- Generator: Adobe Illustrator 22.0.1, SVG Export Plug-In . SVG Version: 6.00 Build 0)  -->
<svg version="1.1" id="Icons" xmlns="http://www.w3.org/2000/svg" xmlns:xlink="http://www.w3.org/1999/xlink" x="0px" y="0px"
	 viewBox="0 0 512 512" style="enable-background:new 0 0 512 512;" xml:space="preserve">
<g>
	<path id="XMLID_65_" style="fill:#FC840A;" d="M512,255.904c0,70.692-28.654,134.692-74.981,181.019S326.692,511.904,256,511.904
		S121.308,483.25,74.981,436.924S0,326.597,0,255.904S28.654,121.212,74.981,74.885S185.308-0.096,256-0.096
		s134.692,28.654,181.019,74.981S512,185.212,512,255.904z"/>
	<g id="XMLID_2437_">
		<path id="XMLID_2493_" style="fill:#2DA1FA;" d="M252.154,343.806l-1.355-1.625l-1.355-1.625c-2.072-2.485-2.941-5.575-2.67-8.561
			c0.271-2.987,1.681-5.87,4.166-7.942l12.266-10.227l12.266-10.227c2.485-2.072,5.575-2.941,8.561-2.67
			c2.987,0.271,5.87,1.681,7.942,4.166l1.355,1.625l1.355,1.625c2.072,2.485,2.941,5.575,2.67,8.561
			c-0.271,2.987-1.681,5.87-4.166,7.942l-12.266,10.227l-12.266,10.227c-2.485,2.072-5.575,2.941-8.561,2.67
			C257.109,347.701,254.226,346.291,252.154,343.806z"/>
		<g id="XMLID_2447_">
			<path id="XMLID_2492_" style="fill:#ADD4E8;" d="M344.109,24.886l0.96,135.665l0.96,135.665c0.018,2.571-1.006,4.905-2.678,6.6
				c-1.672,1.695-3.991,2.753-6.562,2.771l-77.872,0.551l-77.872,0.551c-2.571,0.018-4.905-1.006-6.6-2.678
				c-1.695-1.672-2.753-3.991-2.771-6.562l-0.96-135.665l-0.96-135.665c-0.018-2.571,1.006-4.905,2.678-6.6s3.991-2.753,6.562-2.771
				l77.872-0.551l77.872-0.551c2.571-0.018,4.905,1.006,6.6,2.678C343.033,19.995,344.09,22.314,344.109,24.886z"/>
			<path id="XMLID_2491_" style="fill:#B8E2FD;" d="M344.109,24.886l0.96,135.665l0.96,135.665c0.018,2.571-1.006,4.905-2.678,6.6
				c-1.672,1.695-3.991,2.753-6.562,2.771l-59.261,0.419l-59.261,0.419c-2.571,0.018-4.905-1.006-6.6-2.678
				c-1.695-1.672-2.753-3.991-2.771-6.562l-0.96-135.665l-0.96-135.665c-0.018-2.571,1.006-4.905,2.678-6.6s3.991-2.753,6.562-2.771
				l59.261-0.419l59.261-0.419c2.571-0.018,4.905,1.006,6.6,2.678C343.033,19.995,344.09,22.314,344.109,24.886z"/>
			<path id="XMLID_2490_" style="fill:#9FBECC;" d="M256.458,27.955c-2.029,0.014-3.857,1.179-5.173,3.049s-2.12,4.448-2.1,7.288
				l0.885,125.053l0.885,125.053c0.02,2.84,0.861,5.406,2.203,7.257c1.343,1.852,3.187,2.99,5.216,2.976
				c2.029-0.014,3.857-1.179,5.173-3.049c1.316-1.871,2.12-4.448,2.1-7.288l-0.885-125.053l-0.885-125.053
				c-0.02-2.84-0.861-5.406-2.203-7.257C260.332,29.079,258.487,27.941,256.458,27.955z"/>
			<g id="XMLID_2483_">
				<path id="XMLID_2489_" style="fill:#B03948;" d="M213.42,45.285l9.804,9.666l9.804,9.666c2.837,2.797,4.544,6.308,5.116,9.963
					c0.572,3.655,0.01,7.456-1.69,10.832c-0.408,0.813-0.883,1.602-1.425,2.358c-0.541,0.756-1.149,1.48-1.822,2.163
					c-3.471,3.52-8.04,5.3-12.621,5.333c-4.581,0.032-9.175-1.683-12.695-5.153l-9.804-9.666l-9.804-9.666
					c-3.52-3.471-5.3-8.04-5.333-12.621s1.683-9.175,5.153-12.695c0.673-0.683,1.388-1.3,2.136-1.852
					c0.748-0.552,1.53-1.038,2.338-1.458c1.272-0.664,2.608-1.165,3.976-1.502c1.368-0.337,2.769-0.511,4.17-0.521
					c2.29-0.015,4.584,0.406,6.745,1.264C209.631,42.253,211.66,43.549,213.42,45.285z"/>
				<path id="XMLID_2488_" style="fill:#2695D7;" d="M213.42,45.285l5.433,5.357l5.433,5.357l-12.568,12.747l-12.568,12.747
					l-5.433-5.357l-5.433-5.357c-3.52-3.471-5.3-8.04-5.333-12.621s1.683-9.175,5.153-12.695c0.673-0.683,1.388-1.3,2.136-1.852
					c0.748-0.552,1.53-1.038,2.338-1.458c1.272-0.664,2.608-1.165,3.976-1.502c1.368-0.337,2.769-0.511,4.17-0.521
					c2.29-0.015,4.584,0.406,6.745,1.264C209.631,42.253,211.66,43.549,213.42,45.285z"/>
				<path id="XMLID_2487_" style="fill:#F74755;" d="M213.42,45.285l9.804,9.666l9.804,9.666c2.837,2.797,4.544,6.308,5.116,9.963
					c0.572,3.655,0.01,7.456-1.69,10.832c-3.352,1.748-7.144,2.364-10.807,1.843c-3.663-0.52-7.198-2.177-10.035-4.975l-9.804-9.666
					l-9.804-9.666c-2.837-2.797-4.544-6.308-5.116-9.963s-0.01-7.456,1.69-10.832c1.272-0.664,2.608-1.165,3.976-1.502
					c1.368-0.337,2.769-0.511,4.17-0.521c2.29-0.015,4.584,0.406,6.745,1.264C209.631,42.253,211.66,43.549,213.42,45.285z"/>
				<path id="XMLID_2486_" style="fill:#2D9FF8;" d="M213.42,45.285c-1.76-1.735-3.789-3.032-5.95-3.89
					c-2.161-0.859-4.455-1.28-6.745-1.264c-1.401,0.01-2.802,0.184-4.17,0.521c-1.368,0.337-2.704,0.838-3.976,1.502
					c-1.7,3.376-2.263,7.177-1.69,10.832s2.279,7.166,5.116,9.963l5.433,5.357l5.433,5.357l4.354-4.416l4.354-4.416l-3.756-3.703
					l-3.756-3.703c-0.893-0.88-1.344-2.039-1.352-3.2c-0.008-1.162,0.427-2.326,1.307-3.219c0.88-0.893,2.039-1.344,3.2-1.352
					c1.162-0.008,2.326,0.427,3.219,1.307l3.756,3.703l3.756,3.703l1.167-1.184l1.167-1.184l-5.433-5.357L213.42,45.285z"/>
				<path id="XMLID_2485_" style="fill:#F67A82;" d="M223.09,72.237c0.893,0.88,2.057,1.315,3.219,1.307
					c1.162-0.008,2.32-0.46,3.2-1.352s1.315-2.057,1.307-3.219c-0.008-1.162-0.46-2.32-1.352-3.2l-3.756-3.703l-3.756-3.703
					l-3.187,3.232l-3.187,3.232l3.756,3.703L223.09,72.237z"/>
				<path id="XMLID_2484_" style="fill:#63C1F6;" d="M208.021,51.005c-0.88,0.893-1.315,2.057-1.307,3.219
					c0.008,1.162,0.46,2.32,1.352,3.2l3.756,3.703l3.756,3.703l3.187-3.232l3.187-3.232l-3.756-3.703l-3.756-3.703
					c-0.893-0.88-2.057-1.315-3.219-1.307C210.059,49.661,208.901,50.112,208.021,51.005z"/>
			</g>
			<g id="XMLID_2476_">
				<path id="XMLID_2482_" style="fill:#B03948;" d="M306.238,44.628l9.804,9.666l9.804,9.666c2.837,2.797,4.544,6.308,5.116,9.963
					c0.572,3.655,0.01,7.456-1.69,10.832c-0.408,0.813-0.883,1.602-1.425,2.358s-1.149,1.48-1.822,2.163
					c-3.471,3.52-8.039,5.3-12.621,5.333c-4.581,0.032-9.175-1.683-12.695-5.153l-9.804-9.666l-9.804-9.666
					c-3.52-3.471-5.3-8.04-5.333-12.621c-0.032-4.581,1.683-9.175,5.153-12.695c0.673-0.683,1.388-1.3,2.136-1.852
					c0.748-0.552,1.53-1.038,2.338-1.458c1.272-0.664,2.608-1.165,3.976-1.502s2.769-0.511,4.17-0.521
					c2.29-0.015,4.584,0.406,6.745,1.264C302.45,41.596,304.478,42.892,306.238,44.628z"/>
				<path id="XMLID_2481_" style="fill:#2695D7;" d="M306.238,44.628l5.433,5.357l5.433,5.357l-12.568,12.747l-12.568,12.747
					l-5.433-5.357l-5.433-5.357c-3.52-3.471-5.3-8.04-5.333-12.621c-0.032-4.581,1.683-9.175,5.153-12.695
					c0.673-0.683,1.388-1.3,2.136-1.852c0.748-0.552,1.53-1.038,2.338-1.458c1.272-0.664,2.608-1.165,3.976-1.502
					s2.769-0.511,4.17-0.521c2.29-0.015,4.584,0.406,6.745,1.264C302.45,41.596,304.478,42.892,306.238,44.628z"/>
				<path id="XMLID_2480_" style="fill:#F74755;" d="M306.238,44.628l9.804,9.666l9.804,9.666c2.837,2.797,4.544,6.308,5.116,9.963
					c0.572,3.655,0.01,7.456-1.69,10.832c-3.352,1.748-7.144,2.364-10.807,1.843c-3.663-0.52-7.198-2.177-10.035-4.975l-9.804-9.666
					l-9.804-9.666c-2.837-2.797-4.544-6.308-5.116-9.963c-0.572-3.655-0.01-7.456,1.69-10.832c1.272-0.664,2.608-1.165,3.976-1.502
					s2.769-0.511,4.17-0.521c2.29-0.015,4.584,0.406,6.745,1.264C302.45,41.596,304.478,42.892,306.238,44.628z"/>
				<path id="XMLID_2479_" style="fill:#2D9FF8;" d="M306.238,44.628c-1.76-1.735-3.789-3.032-5.95-3.89
					c-2.161-0.859-4.455-1.28-6.745-1.264c-1.401,0.01-2.802,0.184-4.17,0.521s-2.704,0.838-3.976,1.502
					c-1.7,3.376-2.263,7.177-1.69,10.832c0.572,3.655,2.279,7.166,5.116,9.963l5.433,5.357l5.433,5.357l4.354-4.416l4.354-4.416
					l-3.756-3.703l-3.756-3.703c-0.893-0.88-1.344-2.039-1.352-3.2c-0.008-1.162,0.427-2.326,1.307-3.219
					c0.88-0.893,2.039-1.344,3.2-1.352s2.326,0.427,3.219,1.307l3.756,3.703l3.756,3.703l1.167-1.184l1.167-1.184l-5.433-5.357
					L306.238,44.628z"/>
				<path id="XMLID_2478_" style="fill:#F67A82;" d="M315.908,71.58c0.893,0.88,2.057,1.315,3.219,1.307
					c1.162-0.008,2.32-0.46,3.2-1.352c0.88-0.893,1.315-2.057,1.307-3.219c-0.008-1.162-0.46-2.32-1.352-3.2l-3.756-3.703
					l-3.756-3.703l-3.187,3.232l-3.187,3.232l3.756,3.703L315.908,71.58z"/>
				<path id="XMLID_2477_" style="fill:#63C1F6;" d="M300.839,50.348c-0.88,0.893-1.315,2.057-1.307,3.219
					c0.008,1.162,0.46,2.32,1.352,3.2l3.756,3.703l3.756,3.703l3.187-3.232l3.187-3.232l-3.756-3.703l-3.756-3.703
					c-0.893-0.88-2.057-1.315-3.219-1.307S301.719,49.455,300.839,50.348z"/>
			</g>
			<g id="XMLID_2469_">
				<path id="XMLID_2475_" style="fill:#B03948;" d="M214.073,137.658l9.804,9.666l9.804,9.666c2.837,2.797,4.544,6.308,5.116,9.963
					c0.572,3.655,0.01,7.456-1.69,10.832c-0.408,0.813-0.883,1.602-1.425,2.358c-0.541,0.756-1.149,1.48-1.822,2.163
					c-3.471,3.52-8.04,5.3-12.621,5.333s-9.175-1.683-12.695-5.153l-9.804-9.666l-9.804-9.666c-3.52-3.471-5.3-8.04-5.333-12.621
					s1.683-9.175,5.153-12.695c0.673-0.683,1.388-1.3,2.136-1.852c0.748-0.552,1.53-1.038,2.338-1.458
					c1.272-0.664,2.608-1.165,3.976-1.502s2.769-0.511,4.17-0.521c2.29-0.015,4.584,0.406,6.745,1.264
					C210.285,134.626,212.313,135.923,214.073,137.658z"/>
				<path id="XMLID_2474_" style="fill:#2695D7;" d="M214.073,137.658l5.433,5.357l5.433,5.357l-12.568,12.747l-12.568,12.747
					l-5.433-5.357l-5.433-5.357c-3.52-3.471-5.3-8.04-5.333-12.621s1.683-9.175,5.153-12.695c0.673-0.683,1.388-1.3,2.136-1.852
					c0.748-0.552,1.53-1.038,2.338-1.458c1.272-0.664,2.608-1.165,3.976-1.502s2.769-0.511,4.17-0.521
					c2.29-0.015,4.584,0.406,6.745,1.264C210.285,134.626,212.313,135.923,214.073,137.658z"/>
				<path id="XMLID_2473_" style="fill:#F74755;" d="M214.073,137.658l9.804,9.666l9.804,9.666c2.837,2.797,4.544,6.308,5.116,9.963
					c0.572,3.655,0.01,7.456-1.69,10.832c-3.352,1.748-7.144,2.364-10.807,1.843s-7.198-2.177-10.035-4.975l-9.804-9.666
					l-9.804-9.666c-2.837-2.797-4.544-6.308-5.116-9.963s-0.01-7.456,1.69-10.832c1.272-0.664,2.608-1.165,3.976-1.502
					s2.769-0.511,4.17-0.521c2.29-0.015,4.584,0.406,6.745,1.264C210.285,134.626,212.313,135.923,214.073,137.658z"/>
				<path id="XMLID_2472_" style="fill:#2D9FF8;" d="M214.073,137.658c-1.76-1.735-3.789-3.032-5.95-3.89
					c-2.161-0.859-4.455-1.28-6.745-1.264c-1.401,0.01-2.802,0.184-4.17,0.521s-2.704,0.838-3.976,1.502
					c-1.7,3.376-2.263,7.177-1.69,10.832s2.279,7.166,5.116,9.963l5.433,5.357l5.433,5.357l4.354-4.416l4.354-4.416l-3.756-3.703
					l-3.756-3.703c-0.893-0.88-1.344-2.039-1.352-3.2c-0.008-1.162,0.427-2.326,1.307-3.219c0.88-0.893,2.039-1.344,3.2-1.352
					c1.162-0.008,2.326,0.427,3.219,1.307l3.756,3.703l3.756,3.703l1.167-1.184l1.167-1.184l-5.433-5.357L214.073,137.658z"/>
				<path id="XMLID_6_" style="fill:#F67A82;" d="M223.744,164.61c0.893,0.88,2.057,1.315,3.219,1.307
					c1.162-0.008,2.32-0.46,3.2-1.352c0.88-0.893,1.315-2.057,1.307-3.219c-0.008-1.162-0.46-2.32-1.352-3.2l-3.756-3.703
					l-3.756-3.703l-3.187,3.232l-3.187,3.232l3.756,3.703L223.744,164.61z"/>
				<path id="XMLID_2470_" style="fill:#63C1F6;" d="M208.674,143.378c-0.88,0.893-1.315,2.057-1.307,3.219
					c0.008,1.162,0.46,2.32,1.352,3.2l3.756,3.703l3.756,3.703l3.187-3.232l3.187-3.232l-3.756-3.703l-3.756-3.703
					c-0.893-0.88-2.057-1.315-3.219-1.307C210.713,142.034,209.554,142.485,208.674,143.378z"/>
			</g>
			<g id="XMLID_2462_">
				<path id="XMLID_2468_" style="fill:#B03948;" d="M306.892,137.001l9.804,9.666l9.804,9.666c2.837,2.797,4.544,6.308,5.116,9.963
					c0.572,3.655,0.01,7.456-1.69,10.832c-0.408,0.813-0.883,1.602-1.425,2.358c-0.541,0.756-1.149,1.48-1.822,2.163
					c-3.471,3.52-8.04,5.3-12.621,5.333s-9.175-1.683-12.695-5.153l-9.804-9.666l-9.804-9.666c-3.52-3.471-5.3-8.04-5.333-12.621
					c-0.032-4.581,1.683-9.175,5.153-12.695c0.673-0.683,1.388-1.3,2.136-1.852c0.748-0.552,1.53-1.038,2.338-1.458
					c1.272-0.664,2.608-1.165,3.976-1.502c1.368-0.337,2.769-0.511,4.17-0.521c2.29-0.015,4.584,0.406,6.745,1.264
					S305.132,135.266,306.892,137.001z"/>
				<path id="XMLID_2467_" style="fill:#2695D7;" d="M306.892,137.001l5.433,5.357l5.433,5.357l-12.568,12.747l-12.568,12.747
					l-5.433-5.357l-5.433-5.357c-3.52-3.471-5.3-8.04-5.333-12.621c-0.032-4.581,1.683-9.175,5.153-12.695
					c0.673-0.683,1.388-1.3,2.136-1.852c0.748-0.552,1.53-1.038,2.338-1.458c1.272-0.664,2.608-1.165,3.976-1.502
					c1.368-0.337,2.769-0.511,4.17-0.521c2.29-0.015,4.584,0.406,6.745,1.264S305.132,135.266,306.892,137.001z"/>
				<path id="XMLID_2466_" style="fill:#F74755;" d="M306.892,137.001l9.804,9.666l9.804,9.666c2.837,2.797,4.544,6.308,5.116,9.963
					c0.572,3.655,0.01,7.456-1.69,10.832c-3.352,1.748-7.144,2.364-10.807,1.843c-3.663-0.52-7.198-2.177-10.035-4.975l-9.804-9.666
					l-9.804-9.666c-2.837-2.797-4.544-6.308-5.116-9.963c-0.572-3.655-0.01-7.456,1.69-10.832c1.272-0.664,2.608-1.165,3.976-1.502
					c1.368-0.337,2.769-0.511,4.17-0.521c2.29-0.015,4.584,0.406,6.745,1.264S305.132,135.266,306.892,137.001z"/>
				<path id="XMLID_2465_" style="fill:#2D9FF8;" d="M306.892,137.001c-1.76-1.735-3.789-3.032-5.95-3.89s-4.455-1.28-6.745-1.264
					c-1.401,0.01-2.802,0.184-4.17,0.521c-1.368,0.337-2.704,0.838-3.976,1.502c-1.7,3.376-2.263,7.177-1.69,10.832
					c0.572,3.655,2.279,7.166,5.116,9.963l5.433,5.357l5.433,5.357l4.354-4.416l4.354-4.416l-3.756-3.703l-3.756-3.703
					c-0.893-0.88-1.344-2.039-1.352-3.2c-0.008-1.162,0.427-2.326,1.307-3.219c0.88-0.893,2.039-1.344,3.2-1.352
					c1.162-0.008,2.326,0.427,3.219,1.307l3.756,3.703l3.756,3.703l1.167-1.184l1.167-1.184l-5.433-5.357L306.892,137.001z"/>
				<path id="XMLID_2464_" style="fill:#F67A82;" d="M316.562,163.953c0.893,0.88,2.057,1.315,3.219,1.307s2.32-0.46,3.2-1.352
					c0.88-0.893,1.315-2.057,1.307-3.219c-0.008-1.162-0.46-2.32-1.352-3.2l-3.756-3.703l-3.756-3.703l-3.187,3.232l-3.187,3.232
					l3.756,3.703L316.562,163.953z"/>
				<path id="XMLID_2463_" style="fill:#63C1F6;" d="M301.493,142.721c-0.88,0.893-1.315,2.057-1.307,3.219
					c0.008,1.162,0.46,2.32,1.352,3.2l3.756,3.703l3.756,3.703l3.187-3.232l3.187-3.232l-3.756-3.703l-3.756-3.703
					c-0.893-0.88-2.057-1.315-3.219-1.307C303.532,141.377,302.373,141.828,301.493,142.721z"/>
			</g>
			<g id="XMLID_2455_">
				<path id="XMLID_2461_" style="fill:#B03948;" d="M214.697,225.772l9.804,9.666l9.804,9.666c2.837,2.797,4.544,6.308,5.116,9.963
					c0.572,3.655,0.01,7.456-1.69,10.832c-0.408,0.813-0.883,1.602-1.425,2.358c-0.541,0.756-1.149,1.48-1.822,2.163
					c-3.471,3.52-8.04,5.3-12.621,5.333c-4.581,0.032-9.175-1.683-12.695-5.153l-9.804-9.666l-9.804-9.666
					c-3.52-3.471-5.3-8.04-5.333-12.621s1.683-9.175,5.153-12.695c0.673-0.683,1.388-1.3,2.136-1.852
					c0.748-0.552,1.53-1.038,2.338-1.458c1.272-0.664,2.608-1.165,3.976-1.502c1.368-0.337,2.769-0.511,4.17-0.521
					c2.29-0.015,4.584,0.406,6.745,1.264C210.908,222.741,212.937,224.037,214.697,225.772z"/>
				<path id="XMLID_2460_" style="fill:#2695D7;" d="M214.697,225.772l5.433,5.357l5.433,5.357l-12.568,12.747l-12.568,12.747
					l-5.433-5.357l-5.433-5.357c-3.52-3.471-5.3-8.04-5.333-12.621s1.683-9.175,5.153-12.695c0.673-0.683,1.388-1.3,2.136-1.852
					c0.748-0.552,1.53-1.038,2.338-1.458c1.272-0.664,2.608-1.165,3.976-1.502c1.368-0.337,2.769-0.511,4.17-0.521
					c2.29-0.015,4.584,0.406,6.745,1.264C210.908,222.741,212.937,224.037,214.697,225.772z"/>
				<path id="XMLID_2459_" style="fill:#F74755;" d="M214.697,225.772l9.804,9.666l9.804,9.666c2.837,2.797,4.544,6.308,5.116,9.963
					c0.572,3.655,0.01,7.456-1.69,10.832c-3.352,1.748-7.144,2.364-10.807,1.843s-7.198-2.177-10.035-4.975l-9.804-9.666
					l-9.804-9.666c-2.837-2.797-4.544-6.308-5.116-9.963s-0.01-7.456,1.69-10.832c1.272-0.664,2.608-1.165,3.976-1.502
					c1.368-0.337,2.769-0.511,4.17-0.521c2.29-0.015,4.584,0.406,6.745,1.264C210.908,222.741,212.937,224.037,214.697,225.772z"/>
				<path id="XMLID_2458_" style="fill:#2D9FF8;" d="M214.697,225.772c-1.76-1.735-3.789-3.032-5.95-3.89
					c-2.161-0.859-4.455-1.28-6.745-1.264c-1.401,0.01-2.802,0.184-4.17,0.521c-1.368,0.337-2.704,0.838-3.976,1.502
					c-1.7,3.376-2.263,7.177-1.69,10.832s2.279,7.166,5.116,9.963l5.433,5.357l5.433,5.357l4.354-4.416l4.354-4.416l-3.756-3.703
					l-3.756-3.703c-0.893-0.88-1.344-2.039-1.352-3.2s0.427-2.326,1.307-3.219c0.88-0.893,2.039-1.344,3.2-1.352
					s2.326,0.427,3.219,1.307l3.756,3.703l3.756,3.703l1.167-1.184l1.167-1.184l-5.433-5.357L214.697,225.772z"/>
				<path id="XMLID_2457_" style="fill:#F67A82;" d="M224.367,252.724c0.893,0.88,2.057,1.315,3.219,1.307
					c1.162-0.008,2.32-0.46,3.2-1.352c0.88-0.893,1.315-2.057,1.307-3.219c-0.008-1.162-0.46-2.32-1.352-3.2l-3.756-3.703
					l-3.756-3.703l-3.187,3.232l-3.187,3.232l3.756,3.703L224.367,252.724z"/>
				<path id="XMLID_2456_" style="fill:#63C1F6;" d="M209.298,231.492c-0.88,0.893-1.315,2.057-1.307,3.219s0.46,2.32,1.352,3.2
					l3.756,3.703l3.756,3.703l3.187-3.232l3.187-3.232l-3.756-3.703l-3.756-3.703c-0.893-0.88-2.057-1.315-3.219-1.307
					S210.178,230.6,209.298,231.492z"/>
			</g>
			<g id="XMLID_2448_">
				<path id="XMLID_2454_" style="fill:#B03948;" d="M307.516,225.115l9.804,9.666l9.804,9.666c2.837,2.797,4.544,6.308,5.116,9.963
					c0.572,3.655,0.01,7.456-1.69,10.832c-0.408,0.813-0.883,1.602-1.425,2.358s-1.149,1.48-1.822,2.163
					c-3.471,3.52-8.039,5.3-12.621,5.333c-4.581,0.032-9.175-1.683-12.695-5.153l-9.804-9.666l-9.804-9.666
					c-3.52-3.471-5.3-8.04-5.333-12.621c-0.032-4.581,1.683-9.175,5.153-12.695c0.673-0.683,1.388-1.3,2.136-1.852
					c0.748-0.552,1.53-1.038,2.338-1.458c1.272-0.664,2.608-1.165,3.976-1.502c1.368-0.337,2.769-0.511,4.17-0.521
					c2.29-0.015,4.584,0.406,6.745,1.264S305.756,223.38,307.516,225.115z"/>
				<path id="XMLID_2453_" style="fill:#2695D7;" d="M307.516,225.115l5.433,5.357l5.433,5.357l-12.568,12.747l-12.568,12.747
					l-5.433-5.357l-5.433-5.357c-3.52-3.471-5.3-8.04-5.333-12.621c-0.032-4.581,1.683-9.175,5.153-12.695
					c0.673-0.683,1.388-1.3,2.136-1.852c0.748-0.552,1.53-1.038,2.338-1.458c1.272-0.664,2.608-1.165,3.976-1.502
					c1.368-0.337,2.769-0.511,4.17-0.521c2.29-0.015,4.584,0.406,6.745,1.264S305.756,223.38,307.516,225.115z"/>
				<path id="XMLID_2452_" style="fill:#F74755;" d="M307.516,225.115l9.804,9.666l9.804,9.666c2.837,2.797,4.544,6.308,5.116,9.963
					c0.572,3.655,0.01,7.456-1.69,10.832c-3.352,1.748-7.144,2.364-10.807,1.843c-3.663-0.52-7.198-2.177-10.035-4.975l-9.804-9.666
					l-9.804-9.666c-2.837-2.797-4.544-6.308-5.116-9.963c-0.572-3.655-0.01-7.456,1.69-10.832c1.272-0.664,2.608-1.165,3.976-1.502
					c1.368-0.337,2.769-0.511,4.17-0.521c2.29-0.015,4.584,0.406,6.745,1.264S305.756,223.38,307.516,225.115z"/>
				<path id="XMLID_2451_" style="fill:#2D9FF8;" d="M307.516,225.115c-1.76-1.735-3.789-3.032-5.95-3.89s-4.455-1.28-6.745-1.264
					c-1.401,0.01-2.802,0.184-4.17,0.521c-1.368,0.337-2.704,0.838-3.976,1.502c-1.7,3.376-2.263,7.177-1.69,10.832
					c0.572,3.655,2.279,7.166,5.116,9.963l5.433,5.357l5.433,5.357l4.354-4.416l4.354-4.416l-3.756-3.703l-3.756-3.703
					c-0.893-0.88-1.344-2.039-1.352-3.2c-0.008-1.162,0.427-2.326,1.307-3.219c0.88-0.893,2.039-1.344,3.2-1.352
					c1.162-0.008,2.326,0.427,3.219,1.307l3.756,3.703l3.756,3.703l1.167-1.184l1.167-1.184l-5.433-5.357L307.516,225.115z"/>
				<path id="XMLID_2450_" style="fill:#F67A82;" d="M317.186,252.067c0.893,0.88,2.057,1.315,3.219,1.307
					c1.162-0.008,2.32-0.46,3.2-1.352s1.315-2.057,1.307-3.219c-0.008-1.162-0.46-2.32-1.352-3.2l-3.756-3.703l-3.756-3.703
					l-3.187,3.232l-3.187,3.232l3.756,3.703L317.186,252.067z"/>
				<path id="XMLID_2449_" style="fill:#63C1F6;" d="M302.117,230.835c-0.88,0.893-1.315,2.057-1.307,3.219
					c0.008,1.162,0.46,2.32,1.352,3.2l3.756,3.703l3.756,3.703l3.187-3.232l3.187-3.232l-3.756-3.703l-3.756-3.703
					c-0.893-0.88-2.057-1.315-3.219-1.307C304.155,229.491,302.997,229.943,302.117,230.835z"/>
			</g>
		</g>
		<path id="XMLID_2446_" style="fill:#0FA46E;" d="M365.006,222.414V345.31v122.896c0,5.533-2.242,10.541-5.868,14.167
			c-3.626,3.626-8.634,5.868-14.167,5.868h-89.172h-89.172c-5.533,0-10.541-2.243-14.167-5.868
			c-3.626-3.626-5.868-8.634-5.868-14.167V345.31V222.414c0-3.159,1.281-6.02,3.351-8.09c2.07-2.07,4.931-3.351,8.09-3.351h13.955
			h13.955c2.893,0,5.559,1.08,7.588,2.879c2.029,1.798,3.422,4.315,3.77,7.187l1.269,10.478l1.269,10.478
			c0.612,5.055,3.064,9.484,6.635,12.649c3.571,3.165,8.263,5.066,13.355,5.066h35.968h35.968c5.092,0,9.784-1.901,13.355-5.066
			c3.571-3.165,6.023-7.594,6.635-12.649l1.269-10.478l1.269-10.478c0.348-2.872,1.741-5.389,3.77-7.187
			c2.029-1.798,4.695-2.879,7.588-2.879h13.955h13.955c3.159,0,6.02,1.281,8.09,3.351
			C363.725,216.394,365.006,219.255,365.006,222.414z"/>
		<path id="XMLID_2445_" style="fill:#088E5D;" d="M326.489,467.56h-70.69h-70.69c-3.344,0-6.372-1.356-8.564-3.547
			s-3.547-5.22-3.547-8.564v-83.043v-83.043c0-3.344,1.356-6.372,3.547-8.564s5.22-3.547,8.564-3.547h70.69h70.69
			c3.344,0,6.372,1.356,8.564,3.547s3.547,5.22,3.547,8.564v83.043v83.043c0,3.344-1.356,6.372-3.547,8.564
			S329.833,467.56,326.489,467.56z"/>
		<g id="XMLID_2438_">
			<g id="XMLID_2442_">
				<path id="XMLID_2444_" style="fill:#D0CECE;" d="M325.706,367.601c0,17.141-6.361,32.797-16.851,44.736
					s-25.108,20.162-41.622,22.435c-1.526,0.215-3.069,0.375-4.627,0.483c-1.558,0.107-3.13,0.161-4.715,0.161
					c-18.725,0-35.679-7.591-47.952-19.864c-12.272-12.272-19.864-29.226-19.864-47.952c0-18.725,7.591-35.679,19.864-47.952
					c12.272-12.272,29.226-19.864,47.952-19.864c1.585,0,3.157,0.054,4.715,0.161c1.558,0.107,3.101,0.268,4.627,0.483
					c16.514,2.273,31.133,10.496,41.622,22.435S325.706,350.461,325.706,367.601z"/>
				<path id="XMLID_2443_" style="fill:#FFFFFF;" d="M325.706,367.601c0,17.141-6.361,32.797-16.851,44.736
					s-25.108,20.162-41.622,22.435c-16.514-2.273-31.133-10.496-41.622-22.435s-16.851-27.596-16.851-44.736
					s6.361-32.797,16.851-44.736s25.108-20.162,41.622-22.435c16.514,2.273,31.133,10.496,41.622,22.435
					S325.706,350.461,325.706,367.601z"/>
			</g>
			<g id="XMLID_2439_">
				<path id="XMLID_2441_" style="fill:#BE3C4D;" d="M305.14,355.989v11.612v11.612c0,2.21-0.897,4.212-2.346,5.662
					c-1.449,1.45-3.452,2.346-5.662,2.346h-5.806h-5.806c-2.21,0-4.212,0.897-5.662,2.346c-1.45,1.449-2.346,3.452-2.346,5.662
					v5.806v5.806c0,2.21-0.897,4.212-2.346,5.662c-1.45,1.45-3.452,2.346-5.662,2.346h-11.612h-11.612
					c-2.21,0-4.212-0.897-5.662-2.346c-1.45-1.45-2.346-3.452-2.346-5.662v-5.806v-5.806c0-2.21-0.897-4.212-2.346-5.662
					c-1.45-1.45-3.452-2.346-5.662-2.346h-5.806h-5.806c-2.21,0-4.212-0.897-5.662-2.346c-1.45-1.45-2.346-3.452-2.346-5.662
					v-11.612v-11.612c0-2.21,0.897-4.212,2.346-5.662c1.45-1.449,3.452-2.346,5.662-2.346h5.806h5.806
					c2.21,0,4.212-0.897,5.662-2.346c1.45-1.45,2.346-3.452,2.346-5.662v-5.806v-5.806c0-2.21,0.897-4.212,2.346-5.662
					c1.45-1.45,3.452-2.346,5.662-2.346h11.612h11.612c2.21,0,4.212,0.897,5.662,2.346c1.449,1.45,2.346,3.452,2.346,5.662v5.806
					v5.806c0,2.21,0.897,4.212,2.346,5.662s3.452,2.346,5.662,2.346h5.806h5.806c2.21,0,4.212,0.897,5.662,2.346
					C304.243,351.777,305.14,353.779,305.14,355.989z"/>
				<path id="XMLID_2440_" style="fill:#F44755;" d="M305.14,355.989v11.612v11.612c0,2.21-0.897,4.212-2.346,5.662
					c-1.449,1.45-3.452,2.346-5.662,2.346h-5.806h-5.806c-2.21,0-4.212,0.897-5.662,2.346c-1.45,1.449-2.346,3.452-2.346,5.662
					v5.806v5.806c0,2.21-0.897,4.212-2.346,5.662c-1.45,1.45-3.452,2.346-5.662,2.346H266.7h-2.803c-2.21,0-4.212-0.897-5.662-2.346
					c-1.45-1.45-2.346-3.452-2.346-5.662v-5.806v-5.806c0-2.21-0.897-4.212-2.346-5.662c-1.45-1.45-3.452-2.346-5.662-2.346h-5.806
					h-5.806c-2.21,0-4.212-0.897-5.662-2.346s-2.346-3.452-2.346-5.662v-11.612v-11.612c0-2.21,0.897-4.212,2.346-5.662
					c1.45-1.449,3.452-2.346,5.662-2.346h5.806h5.806c2.21,0,4.212-0.897,5.662-2.346c1.45-1.45,2.346-3.452,2.346-5.662v-5.806
					v-5.806c0-2.21,0.897-4.212,2.346-5.662c1.449-1.45,3.452-2.346,5.662-2.346h2.803h2.803c2.21,0,4.212,0.897,5.662,2.346
					c1.449,1.45,2.346,3.452,2.346,5.662v5.806v5.806c0,2.21,0.897,4.212,2.346,5.662s3.452,2.346,5.662,2.346h5.806h5.806
					c2.21,0,4.212,0.897,5.662,2.346C304.243,351.777,305.14,353.779,305.14,355.989z"/>
			</g>
		</g>
	</g>
</g>
</svg>
